<svg width="112" height="112" viewBox="0 0 112 112" fill="none" xmlns="http://www.w3.org/2000/svg">
<g clip-path="url(#clip0_79_174)">
<path d="M98 74.6667V37.3333C97.9983 35.6966 97.5663 34.0891 96.7472 32.6721C95.9281 31.2551 94.7508 30.0783 93.3333 29.26L60.6667 10.5933C59.2478 9.77415 57.6383 9.3429 56 9.3429C54.3617 9.3429 52.7522 9.77415 51.3333 10.5933L18.6667 29.26C17.2492 30.0783 16.0719 31.2551 15.2528 32.6721C14.4337 34.0891 14.0017 35.6966 14 37.3333V74.6667C14.0017 76.3034 14.4337 77.9109 15.2528 79.3279C16.0719 80.7449 17.2492 81.9216 18.6667 82.74L51.3333 101.407C52.7522 102.226 54.3617 102.657 56 102.657C57.6383 102.657 59.2478 102.226 60.6667 101.407L93.3333 82.74C94.7508 81.9216 95.9281 80.7449 96.7472 79.3279C97.5663 77.9109 97.9983 76.3034 98 74.6667Z" fill="black" stroke="black" stroke-width="3" stroke-linecap="round" stroke-linejoin="round"/>
<g filter="url(#filter0_df_79_174)">
<path d="M89 70.6666V41.3333C88.9987 40.0473 88.6592 38.7843 88.0156 37.6709C87.3721 36.5575 86.447 35.633 85.3333 34.99L59.6667 20.3233C58.5519 19.6797 57.2873 19.3408 56 19.3408C54.7127 19.3408 53.4481 19.6797 52.3333 20.3233L26.6667 34.99C25.553 35.633 24.6279 36.5575 23.9844 37.6709C23.3408 38.7843 23.0013 40.0473 23 41.3333V70.6666C23.0013 71.9526 23.3408 73.2157 23.9844 74.329C24.6279 75.4424 25.553 76.367 26.6667 77.01L52.3333 91.6766C53.4481 92.3203 54.7127 92.6591 56 92.6591C57.2873 92.6591 58.5519 92.3203 59.6667 91.6766L85.3333 77.01C86.447 76.367 87.3721 75.4424 88.0156 74.329C88.6592 73.2157 88.9987 71.9526 89 70.6666Z" stroke="black" stroke-opacity="0.2" stroke-width="3" stroke-linecap="round" stroke-linejoin="round" shape-rendering="crispEdges"/>
</g>
<g clip-path="url(#clip1_79_174)">
<g filter="url(#filter1_dgn_79_174)">
<path d="M55.9998 35.38L67.3198 46.7C69.5585 48.9372 71.0834 51.7881 71.7016 54.8921C72.3198 57.9961 72.0035 61.2137 70.7928 64.1379C69.5822 67.0622 67.5314 69.5616 64.9 71.3202C62.2686 73.0788 59.1747 74.0174 56.0098 74.0174C52.8448 74.0174 49.751 73.0788 47.1196 71.3202C44.4881 69.5616 42.4374 67.0622 41.2267 64.1379C40.016 61.2137 39.6998 57.9961 40.318 54.8921C40.9362 51.7881 42.4611 48.9372 44.6998 46.7L55.9998 35.38Z" stroke="#663399" stroke-width="3" stroke-linecap="round" stroke-linejoin="round" shape-rendering="crispEdges"/>
</g>
</g>
</g>
<defs>
<filter id="filter0_df_79_174" x="17.5" y="13.8408" width="77" height="84.3184" filterUnits="userSpaceOnUse" color-interpolation-filters="sRGB">
<feFlood flood-opacity="0" result="BackgroundImageFix"/>
<feColorMatrix in="SourceAlpha" type="matrix" values="0 0 0 0 0 0 0 0 0 0 0 0 0 0 0 0 0 0 127 0" result="hardAlpha"/>
<feOffset/>
<feGaussianBlur stdDeviation="2"/>
<feComposite in2="hardAlpha" operator="out"/>
<feColorMatrix type="matrix" values="0 0 0 0 1 0 0 0 0 1 0 0 0 0 1 0 0 0 1 0"/>
<feBlend mode="normal" in2="BackgroundImageFix" result="effect1_dropShadow_79_174"/>
<feBlend mode="normal" in="SourceGraphic" in2="effect1_dropShadow_79_174" result="shape"/>
<feGaussianBlur stdDeviation="1" result="effect2_foregroundBlur_79_174"/>
</filter>
<filter id="filter1_dgn_79_174" x="32.5098" y="27.88" width="47" height="53.6375" filterUnits="userSpaceOnUse" color-interpolation-filters="sRGB">
<feFlood flood-opacity="0" result="BackgroundImageFix"/>
<feColorMatrix in="SourceAlpha" type="matrix" values="0 0 0 0 0 0 0 0 0 0 0 0 0 0 0 0 0 0 127 0" result="hardAlpha"/>
<feOffset/>
<feGaussianBlur stdDeviation="3"/>
<feComposite in2="hardAlpha" operator="out"/>
<feColorMatrix type="matrix" values="0 0 0 0 0.4 0 0 0 0 0.2 0 0 0 0 0.6 0 0 0 1 0"/>
<feBlend mode="normal" in2="BackgroundImageFix" result="effect1_dropShadow_79_174"/>
<feBlend mode="normal" in="SourceGraphic" in2="effect1_dropShadow_79_174" result="shape"/>
<feTurbulence type="fractalNoise" baseFrequency="0.5 0.5" numOctaves="3" seed="8690" />
<feDisplacementMap in="shape" scale="6" xChannelSelector="R" yChannelSelector="G" result="displacedImage" width="100%" height="100%" />
<feMerge result="effect2_texture_79_174">
<feMergeNode in="displacedImage"/>
</feMerge>
<feTurbulence type="fractalNoise" baseFrequency="2 2" stitchTiles="stitch" numOctaves="3" result="noise" seed="5395" />
<feColorMatrix in="noise" type="luminanceToAlpha" result="alphaNoise" />
<feComponentTransfer in="alphaNoise" result="coloredNoise1">
<feFuncA type="discrete" tableValues="1 1 1 1 1 1 1 1 1 1 1 1 1 1 1 1 1 1 1 1 1 1 1 1 1 1 1 1 1 1 1 1 1 1 1 1 1 1 1 1 1 1 1 1 1 1 1 1 1 1 1 0 0 0 0 0 0 0 0 0 0 0 0 0 0 0 0 0 0 0 0 0 0 0 0 0 0 0 0 0 0 0 0 0 0 0 0 0 0 0 0 0 0 0 0 0 0 0 0 0 "/>
</feComponentTransfer>
<feComposite operator="in" in2="effect2_texture_79_174" in="coloredNoise1" result="noise1Clipped" />
<feComponentTransfer in="alphaNoise" result="coloredNoise2">
<feFuncA type="discrete" tableValues="0 0 0 0 0 0 0 0 0 0 0 0 0 0 0 0 0 0 0 0 0 0 0 0 0 0 0 0 0 0 0 0 0 0 0 0 0 0 0 0 0 0 0 0 0 0 0 0 0 1 1 1 1 1 1 1 1 1 1 1 1 1 1 1 1 1 1 1 1 1 1 1 1 1 1 1 1 1 1 1 1 1 1 1 1 1 1 1 1 1 1 1 1 1 1 1 1 1 1 1 "/>
</feComponentTransfer>
<feComposite operator="in" in2="effect2_texture_79_174" in="coloredNoise2" result="noise2Clipped" />
<feFlood flood-color="rgba(0, 0, 0, 0.25)" result="color1Flood" />
<feComposite operator="in" in2="noise1Clipped" in="color1Flood" result="color1" />
<feFlood flood-color="rgba(255, 255, 255, 0.25)" result="color2Flood" />
<feComposite operator="in" in2="noise2Clipped" in="color2Flood" result="color2" />
<feMerge result="effect3_noise_79_174">
<feMergeNode in="effect2_texture_79_174" />
<feMergeNode in="color1" />
<feMergeNode in="color2" />
</feMerge>
</filter>
<clipPath id="clip0_79_174">
<rect width="112" height="112" fill="white"/>
</clipPath>
<clipPath id="clip1_79_174">
<rect width="48" height="48" fill="white" transform="translate(32 30)"/>
</clipPath>
</defs>
</svg>
